Coordinates
version=1
nRows=6
nColumns=36
inDegrees=yes

Units are S.I. units (second, meters, Newtons, ...)
If the header above contains a line with 'inDegrees', this indicates whether rotational values are in degrees (yes) or radians (no).

endheader
time	pelvis_tilt	pelvis_list	pelvis_rotation	pelvis_tx	pelvis_ty	pelvis_tz	hip_flexion_r	hip_adduction_r	hip_rotation_r	knee_angle_r	knee_angle_r_beta	ankle_angle_r	subtalar_angle_r	mtp_angle_r	hip_flexion_l	hip_adduction_l	hip_rotation_l	knee_angle_l	knee_angle_l_beta	ankle_angle_l	subtalar_angle_l	mtp_angle_l	lumbar_extension	lumbar_bending	lumbar_rotation	arm_flex_r	arm_add_r	arm_rot_r	elbow_flex_r	pro_sup_r	arm_flex_l	arm_add_l	arm_rot_l	elbow_flex_l	pro_sup_l
     44.66666670	      0.53752597	      5.37723331	     -1.82351488	      0.84874789	      0.81347735	      0.70416081	     -3.95285276	     -7.60447803	     -2.97767192	     51.44727368	      0.89792432	    -13.51993594	    -11.62875432	     -7.49999987	     20.26787206	      9.00403375	      6.01869622	     20.21667397	      0.35284752	      6.42131724	     -6.17550518	     -7.49999987	     -4.77408157	     -7.35763405	      6.48907445	      9.67236863	    -15.89335302	     -6.30502550	     31.73752890	    100.96157468	     -1.47552666	    -11.53300883	     -2.53341588	      5.52870403	     97.02855563
     44.68333330	      0.36374938	      4.67247827	     -2.32471425	      0.84537414	      0.81428426	      0.70230890	      0.61947066	     -7.22275658	     -2.68478007	     56.48587156	      0.98586444	    -13.19199520	    -12.32296004	     -7.49999987	     18.44546359	      8.18265656	      6.19546337	     19.09678682	      0.33330181	      6.54980174	     -6.49172485	     -7.49999987	     -4.70983344	     -6.50765690	      6.10664895	      9.09428737	    -15.60467149	     -4.37212183	     30.05496119	     99.68295855	     -0.87213328	    -11.11692307	     -0.31908202	      6.29886922	     95.39978085
     44.70000000	      0.06415173	      3.99693073	     -2.75783239	      0.84087001	      0.81602164	      0.69993038	      5.06869437	     -6.62654906	     -2.37358188	     60.46696262	      1.05534759	    -11.32059380	    -12.92428554	     -7.49999987	     16.84804395	      7.44098624	      6.27478894	     18.10240951	      0.31594665	      6.49816173	     -6.93572217	     -7.49999987	     -4.64492833	     -5.61960554	      5.84739707	      8.11165065	    -15.09935490	     -4.13170825	     28.97845388	     97.12493826	      0.32903948	    -10.60258202	      0.00216074	      6.84886059	     92.86371786
     44.71666670	     -0.69588485	      3.44387129	     -2.89553907	      0.83809957	      0.81739591	      0.69792494	      9.86717304	     -5.99834659	     -2.20304948	     63.63843269	      1.11070018	     -8.26312773	    -13.23125776	     -7.49999987	     15.75098309	      6.89997062	      6.50013495	     17.18409980	      0.29991912	      6.51757980	     -7.30388064	     -7.49999987	     -3.91185535	     -4.74908876	      4.85430725	      7.59782810	    -14.40083112	     -4.16745681	     26.96361704	    101.65976435	      1.35944282	    -10.48137700	      1.75606462	      7.70505991	     95.60548933
     44.73333330	     -1.05793762	      2.88976018	     -2.91120263	      0.83821765	      0.81923916	      0.69741323	     14.03295615	     -5.23587338	     -2.00297503	     65.68377709	      1.14639818	     -4.88169084	    -13.81414085	     -7.49999987	     14.09247556	      6.41069129	      6.88526611	     16.15004697	      0.28187149	      6.61277919	     -7.81176967	     -7.49999987	     -3.75299283	     -3.96352573	      4.06943942	      6.67231811	    -13.83272359	     -3.99914297	     25.45232185	     99.43589942	      3.15144533	    -10.15822676	      2.03518173	      8.04998667	     93.30995828
     44.75000000	     -1.24591649	      2.42397780	     -2.69851249	      0.84165680	      0.82163071	      0.69841918	     17.59201353	     -4.60273684	     -2.03135422	     66.36016111	      1.15820330	     -1.01555345	    -13.67691586	     -7.49999987	     12.09333734	      6.03770346	      7.53352475	     15.01221759	      0.26201262	      6.88788537	     -8.46630989	     -7.49999987	     -3.72219731	     -3.28304240	      2.54904883	      6.04444344	    -13.18338060	     -3.73990524	     23.58015482	     99.45931074	      4.65403283	    -10.13388339	      2.60356466	      8.69710081	     93.34972643
